<svg id="svg4408" xmlns="http://www.w3.org/2000/svg" viewBox="0 0 379.7 90.5"><style>.st0{fill:#fff}</style><path id="path6883-2-3-5-2-4-9-4-9" class="st0" d="M45.3 85.1c-21.9 0-39.7-17.7-39.7-39.7 0-21.9 17.7-39.7 39.7-39.7C67.2 5.7 85 23.4 85 45.4S67.3 85.1 45.3 85.1z"/><path d="M67.5 65c1.1-.2 1.9-1.5 1.9-2.9v-1.8c0-1.6-1-2.9-2.4-2.9-1.3 0-2.4 1.3-2.4 2.9v1.8c0 1.4.8 2.6 1.9 2.9v3.7h-3.3V48.8l-5-1.9v21.7h-.6V38.3l-5-1.9v32.3H52V24.3h-1.5v-1.7h-1.8V21h-2.3v-.5c0-.3-.2-.6-.5-.6h-.2l-.3-7.1c0-.1-.1-.2-.2-.2s-.2.1-.2.2l-.3 7.1h-.2c-.2 0-.5.2-.5.6v.5h-2.3v1.6h-1.8v1.7h-1.5v44.3h-.6V29.4l-10.6 1.9v37.2h-3.4v-3.7c1.1-.2 1.9-1.5 1.9-2.9v-1.8c0-1.6-1-2.9-2.4-2.9s-2.4 1.3-2.4 2.9v1.8c0 1.4.8 2.6 1.9 2.9v3.7h-1.9V70h48.8v-1.5h-1.9v-3.7h-.3v.2zm-7.7-14.1h1.8v2.6h-1.8v-2.6zm0 4.4h1.8v2.6h-1.8v-2.6zm0 4.4h1.8v2.5h-1.8v-2.5zm0 4.3h1.8v2.6h-1.8V64zm-5.6-23.6H56v5h-1.8v-5zm0 7H56v5h-1.8v-5zm0 7.1H56v5h-1.8v-5zm0 7H56v5h-1.8v-5zM33.3 33.6h1.8v2.6h-1.8v-2.6zm0 4.3h1.8v2.6h-1.8v-2.6zm0 4.4h1.8v2.6h-1.8v-2.6zm0 4.3h1.8v2.6h-1.8v-2.6zm0 4.3h1.8v2.6h-1.8v-2.6zm0 4.4h1.8v2.6h-1.8v-2.6zm0 4.4h1.8v2.5h-1.8v-2.5zm0 4.3h1.8v2.6h-1.8V64zm-4-30.4h1.8v2.6h-1.8v-2.6zm0 4.3h1.8v2.6h-1.8v-2.6zm0 4.4h1.8v2.6h-1.8v-2.6zm0 4.3h1.8v2.6h-1.8v-2.6zm0 4.3h1.8v2.6h-1.8v-2.6zm0 4.4h1.8v2.6h-1.8v-2.6zm0 4.4h1.8v2.5h-1.8v-2.5zm0 4.3h1.8v2.6h-1.8V64zM48 26.5h1.8v2.6H48v-2.6zm0 4.3h1.8v2.6H48v-2.6zm0 4.4h1.8v2.6H48v-2.6zm0 4.3h1.8v2.6H48v-2.6zm0 4.4h1.8v2.6H48v-2.6zm0 4.3h1.8v2.6H48v-2.6zm0 4.3h1.8v2.6H48v-2.6zm0 4.4h1.8v2.6H48v-2.6zm.8 4.5v7.3h-3.4v-7.3h3.4zm-4.7-34.9h1.8v2.6h-1.8v-2.6zm0 4.3h1.8v2.6h-1.8v-2.6zm0 4.4h1.8v2.6h-1.8v-2.6zm0 4.3h1.8v2.6h-1.8v-2.6zm0 4.4h1.8v2.6h-1.8v-2.6zm0 4.3h1.8v2.6h-1.8v-2.6zm0 4.3h1.8v2.6h-1.8v-2.6zm0 4.4h1.8v2.6h-1.8v-2.6zm-4-30.4h1.8v2.6h-1.8v-2.6zm0 4.3h1.8v2.6h-1.8v-2.6zm0 4.4h1.8v2.6h-1.8v-2.6zm0 4.3h1.8v2.6h-1.8v-2.6zm0 4.4h1.8v2.6h-1.8v-2.6zm0 4.3h1.8v2.6h-1.8v-2.6zm0 4.3h1.8v2.6h-1.8v-2.6zm0 4.4h1.8v2.6h-1.8v-2.6zm1.2 4.5h3.4v7.3h-3.4v-7.3z" fill="#ef3340"/><path fill="none" d="M93.2 19.6h284.1v56.5H93.2z"/><text transform="translate(93.223 70.558)" class="st0" font-size="70" font-family="PalatinoLinotype-Bold">Alfatime</text></svg>